<?xml version="1.0" encoding="utf-8"?>
<!-- Generator: Adobe Illustrator 21.0.0, SVG Export Plug-In . SVG Version: 6.00 Build 0)  -->
<svg version="1.1" xmlns="http://www.w3.org/2000/svg" xmlns:xlink="http://www.w3.org/1999/xlink" x="0px" y="0px"
	 viewBox="0 0 800 800" style="enable-background:new 0 0 800 800;" xml:space="preserve">
<style type="text/css">
	.st0{fill:#45A7FF;}
	.st1{fill:#8BC5FF;}
	.st2{fill:#FFEEE2;}
	.st3{fill:#06040D;stroke:#000000;stroke-miterlimit:10;}
	.st4{fill:#06040D;}
	.st5{fill:#270047;}
	.st6{font-family:'AldotheApache';}
	.st7{font-size:141.5963px;}
	.st8{fill:#0095A2;}
	.st9{font-size:135px;}
	.st10{fill:#B92100;}
	.st11{font-family:'DymaxionScript';}
	.st12{font-size:140.2507px;}
</style>
<g id="Layer_1">
</g>
<g id="Layer_3">
	<ellipse class="st0" cx="421.4" cy="400.1" rx="68.5" ry="66.1"/>
	<path class="st0" d="M489.9,212.4v192.3c0,0.1-0.1,0.2-0.1,0.3c-0.1,0.4-0.1,0.8-0.2,1.2H353.1c0-0.6-0.1-1.2-0.2-1.8v-192h10.6
		l0.2,18.3c0,2.1,2.5,3.8,5.6,3.8c3.1,0,5.5-1.7,5.5-3.8l-0.2-18.2h9.9v50.8c0,2.9,2.4,5.3,5.3,5.3s5.3-2.4,5.3-5.3v-50.8h10.5v22.3
		c0,2.9,2.4,5.3,5.3,5.3c2.9,0,5.3-2.4,5.3-5.3v-22.3h10.5v34.2c0,2.9,2.4,5.3,5.3,5.3c2.9,0,5.3-2.4,5.3-5.3v-34.2h10.5v4.7
		c0,2.9,2.4,5.3,5.3,5.3c2.9,0,5.3-2.4,5.3-5.3v-4.7h10.5v49.3c0,2.9,2.4,5.3,5.3,5.3c2.9,0,5.3-2.4,5.3-5.3v-49.3H489.9z"/>
</g>
<g id="Layer_5">
	
		<ellipse transform="matrix(1.891463e-03 -1 1 1.891463e-03 22.0218 820.9274)" class="st1" cx="422.3" cy="399.4" rx="58.1" ry="60.7"/>
	<rect x="361.5" y="285.5" class="st1" width="121.2" height="118.9"/>
	<path class="st1" d="M365.5,320.2L365.5,320.2c-2.2,0-4-1.8-4-4v-61.6c0-2.2,1.8-4,4-4l0,0c2.2,0,4,1.8,4,4v61.6
		C369.6,318.4,367.8,320.2,365.5,320.2z"/>
	<path class="st0" d="M373.6,305.6L373.6,305.6c-2.2,0-4-1.8-4-4v-25.9c0-2.2,1.8-4,4-4l0,0c2.2,0,4,1.8,4,4v25.9
		C377.7,303.8,375.9,305.6,373.6,305.6z"/>
	<path class="st1" d="M381.7,322.9L381.7,322.9c-2.2,0-4-1.8-4-4v-36.3c0-2.2,1.8-4,4-4h0c2.2,0,4,1.8,4,4v36.3
		C385.7,321.1,383.9,322.9,381.7,322.9z"/>
	<path class="st0" d="M389.8,329L389.8,329c-2.2,0-4-1.8-4-4v-48.3c0-2.2,1.8-4,4-4l0,0c2.2,0,4,1.8,4,4V325
		C393.8,327.2,392,329,389.8,329z"/>
	<path class="st1" d="M397.8,322.9L397.8,322.9c-2.2,0-4-1.8-4-4v-32.3c0-2.2,1.8-4,4-4l0,0c2.2,0,4,1.8,4,4v32.3
		C401.9,321.1,400.1,322.9,397.8,322.9z"/>
	<path class="st0" d="M405.9,307.7L405.9,307.7c-2.2,0-4-1.8-4-4v-26.1c0-2.2,1.8-4,4-4l0,0c2.2,0,4,1.8,4,4v26.1
		C410,305.9,408.2,307.7,405.9,307.7z"/>
	<path class="st1" d="M414,320.2L414,320.2c-2.2,0-4-1.8-4-4v-56.8c0-2.2,1.8-4,4-4h0c2.2,0,4,1.8,4,4v56.8
		C418,318.4,416.2,320.2,414,320.2z"/>
	<path class="st0" d="M422.1,322.2L422.1,322.2c-2.2,0-4-1.8-4-4v-46.3c0-2.2,1.8-4,4-4l0,0c2.2,0,4,1.8,4,4v46.3
		C426.1,320.4,424.3,322.2,422.1,322.2z"/>
	<path class="st1" d="M430.2,319.7L430.2,319.7c-2.2,0-4-1.8-4-4v-42.2c0-2.2,1.8-4,4-4l0,0c2.2,0,4,1.8,4,4v42.2
		C434.2,317.9,432.4,319.7,430.2,319.7z"/>
	<path class="st0" d="M438.2,293L438.2,293c-2.2,0-4-1.8-4-4v-17c0-2.2,1.8-4,4-4h0c2.2,0,4,1.8,4,4v17
		C442.3,291.2,440.5,293,438.2,293z"/>
	<path class="st1" d="M446.3,319.7L446.3,319.7c-2.2,0-4-1.8-4-4V239c0-2.2,1.8-4,4-4l0,0c2.2,0,4,1.8,4,4v76.6
		C450.4,317.9,448.5,319.7,446.3,319.7z"/>
	<path class="st0" d="M454.4,306.3L454.4,306.3c-2.2,0-4-1.8-4-4V274c0-2.2,1.8-4,4-4l0,0c2.2,0,4,1.8,4,4v28.2
		C458.4,304.4,456.6,306.3,454.4,306.3z"/>
	<path class="st1" d="M462.5,320.2L462.5,320.2c-2.2,0-4-1.8-4-4v-33.6c0-2.2,1.8-4,4-4l0,0c2.2,0,4,1.8,4,4v33.6
		C466.5,318.4,464.7,320.2,462.5,320.2z"/>
	<path class="st0" d="M470.6,332.3L470.6,332.3c-2.2,0-4-1.8-4-4V274c0-2.2,1.8-4,4-4l0,0c2.2,0,4,1.8,4,4v54.2
		C474.6,330.4,472.8,332.3,470.6,332.3z"/>
	<path class="st1" d="M478.6,320.2L478.6,320.2c-2.2,0-4-1.8-4-4v-38.7c0-2.2,1.8-4,4-4h0c2.2,0,4,1.8,4,4v38.7
		C482.7,318.4,480.9,320.2,478.6,320.2z"/>
	<path class="st1" d="M381.7,274L381.7,274c-2.2,0-4-1.8-4-4v-10.6c0-2.2,1.8-4,4-4h0c2.2,0,4,1.8,4,4V270
		C385.7,272.2,383.9,274,381.7,274z"/>
	<path class="st1" d="M477.9,264.7L477.9,264.7c-2.2,0-4-1.8-4-4v-1.3c0-2.2,1.8-4,4-4l0,0c2.2,0,4,1.8,4,4v1.3
		C481.9,262.9,480.1,264.7,477.9,264.7z"/>
</g>
<g id="Layer_2">
	<ellipse class="st2" cx="422.6" cy="398.2" rx="55.3" ry="53.3"/>
	<rect x="367.3" y="352" class="st2" width="110.3" height="49.2"/>
	<path class="st3" d="M423.8,406.8L423.8,406.8c-1.3,0-2.4-1.1-2.4-2.4v-31.5c0-1.3,1.1-2.4,2.4-2.4l0,0c1.3,0,2.4,1.1,2.4,2.4v31.5
		C426.2,405.7,425.1,406.8,423.8,406.8z"/>
	<path class="st2" d="M370.6,371.8L370.6,371.8c-2,0-3.7-1.7-3.7-3.7v-42.8c0-2,1.7-3.7,3.7-3.7l0,0c2,0,3.7,1.7,3.7,3.7v42.8
		C374.3,370.2,372.7,371.8,370.6,371.8z"/>
	<path class="st1" d="M378.1,372.8L378.1,372.8c-2,0-3.7-1.7-3.7-3.7v-40.6c0-2,1.7-3.7,3.7-3.7l0,0c2,0,3.7,1.7,3.7,3.7v40.6
		C381.8,371.1,380.1,372.8,378.1,372.8z"/>
	<path class="st2" d="M385.4,376.5L385.4,376.5c-2,0-3.7-1.7-3.7-3.7v-33.2c0-2,1.7-3.7,3.7-3.7l0,0c2,0,3.7,1.7,3.7,3.7v33.2
		C389.1,374.8,387.4,376.5,385.4,376.5z"/>
	<path class="st1" d="M392.8,364.3L392.8,364.3c-2,0-3.7-1.7-3.7-3.7v-19.4c0-2,1.7-3.7,3.7-3.7l0,0c2,0,3.7,1.7,3.7,3.7v19.4
		C396.5,362.7,394.8,364.3,392.8,364.3z"/>
	<path class="st2" d="M399.9,373.7L399.9,373.7c-2,0-3.7-1.7-3.7-3.7v-37.3c0-2,1.7-3.7,3.7-3.7l0,0c2,0,3.7,1.7,3.7,3.7V370
		C403.6,372.1,401.9,373.7,399.9,373.7z"/>
	<path class="st1" d="M407.2,368.1L407.2,368.1c-2,0-3.7-1.7-3.7-3.7v-15.8c0-2,1.7-3.7,3.7-3.7l0,0c2,0,3.7,1.7,3.7,3.7v15.8
		C410.9,366.4,409.3,368.1,407.2,368.1z"/>
	<path class="st2" d="M414.6,384.4L414.6,384.4c-2,0-3.7-1.7-3.7-3.7v-54.8c0-2,1.7-3.7,3.7-3.7h0c2,0,3.7,1.7,3.7,3.7v54.8
		C418.3,382.7,416.7,384.4,414.6,384.4z"/>
	<path class="st1" d="M422.2,361.4L422.2,361.4c-2,0-3.7-1.7-3.7-3.7v-12.6c0-2,1.7-3.7,3.7-3.7h0c2,0,3.7,1.7,3.7,3.7v12.6
		C425.9,359.7,424.2,361.4,422.2,361.4z"/>
	<path class="st2" d="M429.4,372.1L429.4,372.1c-2,0-3.7-1.7-3.7-3.7v-31c0-2,1.7-3.7,3.7-3.7l0,0c2,0,3.7,1.7,3.7,3.7v31
		C433.1,370.5,431.4,372.1,429.4,372.1z"/>
	<path class="st1" d="M436.8,352.4L436.8,352.4c-2,0-3.7-1.7-3.7-3.7v-7.4c0-2,1.7-3.7,3.7-3.7l0,0c2,0,3.7,1.7,3.7,3.7v7.4
		C440.5,350.7,438.8,352.4,436.8,352.4z"/>
	<path class="st2" d="M444.2,370.5L444.2,370.5c-2,0-3.7-1.7-3.7-3.7v-42.7c0-2,1.7-3.7,3.7-3.7h0c2,0,3.7,1.7,3.7,3.7v42.7
		C447.9,368.9,446.2,370.5,444.2,370.5z"/>
	<path class="st1" d="M451.8,368.1L451.8,368.1c-2,0-3.7-1.7-3.7-3.7v-22.2c0-2,1.7-3.7,3.7-3.7l0,0c2,0,3.7,1.7,3.7,3.7v22.2
		C455.5,366.4,453.8,368.1,451.8,368.1z"/>
	<path class="st2" d="M459.2,368.5L459.2,368.5c-2,0-3.7-1.7-3.7-3.7v-54.9c0-2,1.7-3.7,3.7-3.7l0,0c2,0,3.7,1.7,3.7,3.7v54.9
		C462.9,366.8,461.2,368.5,459.2,368.5z"/>
	<path class="st1" d="M466.6,368.1L466.6,368.1c-2,0-3.7-1.7-3.7-3.7v-22.2c0-2,1.7-3.7,3.7-3.7l0,0c2,0,3.7,1.7,3.7,3.7v22.2
		C470.2,366.4,468.6,368.1,466.6,368.1z"/>
	<path class="st2" d="M473.9,370.8L473.9,370.8c-2,0-3.7-1.7-3.7-3.7v-22.4c0-2,1.7-3.7,3.7-3.7l0,0c2,0,3.7,1.7,3.7,3.7v22.4
		C477.6,369.2,476,370.8,473.9,370.8z"/>
	<path class="st2" d="M444.2,311L444.2,311c-2,0-3.7-1.7-3.7-3.7v-7.4c0-2,1.7-3.7,3.7-3.7h0c2,0,3.7,1.7,3.7,3.7v7.4
		C447.9,309.3,446.2,311,444.2,311z"/>
	<path class="st2" d="M400,322.5L400,322.5c-2,0-3.7-1.7-3.7-3.7v0c0-2,1.7-3.7,3.7-3.7l0,0c2,0,3.7,1.7,3.7,3.7v0
		C403.7,320.8,402,322.5,400,322.5z"/>
	<path class="st4" d="M422.2,405.8L422.2,405.8c-0.5-1.3,0.1-2.7,1.3-3.2l19.7-8.1c1.3-0.5,2.7,0.1,3.2,1.3l0,0
		c0.5,1.3-0.1,2.7-1.3,3.2l-19.7,8.1C424.2,407.7,422.7,407.1,422.2,405.8z"/>
	<path class="st0" d="M379.2,255.3L379.2,255.3c-2.9,0-5.3-2.4-5.3-5.3v-55.2c0-2.9,2.4-5.3,5.3-5.3l0,0c2.9,0,5.3,2.4,5.3,5.3V250
		C384.5,252.9,382.1,255.3,379.2,255.3z"/>
	<path class="st0" d="M400.3,253.5L400.3,253.5c-2.9,0-5.3-2.4-5.3-5.3V120.3c0-2.9,2.4-5.3,5.3-5.3l0,0c2.9,0,5.3,2.4,5.3,5.3
		v127.9C405.6,251.1,403.2,253.5,400.3,253.5z"/>
	<path class="st0" d="M421.4,255.3L421.4,255.3c-2.9,0-5.3-2.4-5.3-5.3v-67.2c0-2.9,2.4-5.3,5.3-5.3l0,0c2.9,0,5.3,2.4,5.3,5.3V250
		C426.6,252.9,424.3,255.3,421.4,255.3z"/>
	<path class="st0" d="M442.5,249L442.5,249c-2.9,0-5.3-2.4-5.3-5.3v-41.5c0-2.9,2.4-5.3,5.3-5.3l0,0c2.9,0,5.3,2.4,5.3,5.3v41.5
		C447.7,246.6,445.4,249,442.5,249z"/>
	<path class="st0" d="M463.5,256.7L463.5,256.7c-2.9,0-5.3-2.4-5.3-5.3V145.3c0-2.9,2.4-5.3,5.3-5.3l0,0c2.9,0,5.3,2.4,5.3,5.3
		v106.2C468.8,254.3,466.4,256.7,463.5,256.7z"/>
	<path class="st0" d="M484.6,257.7L484.6,257.7c-2.9,0-5.3-2.4-5.3-5.3v-50.2c0-2.9,2.4-5.3,5.3-5.3l0,0c2.9,0,5.3,2.4,5.3,5.3v50.2
		C489.9,255.3,487.5,257.7,484.6,257.7z"/>
	<path class="st0" d="M358.1,251.9L358.1,251.9c-2.9,0-5.3-2.4-5.3-5.3v-68.3c0-2.9,2.4-5.3,5.3-5.3l0,0c2.9,0,5.3,2.4,5.3,5.3v68.3
		C363.4,249.5,361,251.9,358.1,251.9z"/>
	<path class="st0" d="M421.4,159.5L421.4,159.5c-2.9,0-5.3-2.4-5.3-5.3v-12.1c0-2.9,2.4-5.3,5.3-5.3h0c2.9,0,5.3,2.4,5.3,5.3v12.1
		C426.7,157.1,424.3,159.5,421.4,159.5z"/>
	<path class="st0" d="M422.3,116.7L422.3,116.7c-2.9,0-5.3-2.4-5.3-5.3v-0.8c0-2.9,2.4-5.3,5.3-5.3l0,0c2.9,0,5.3,2.4,5.3,5.3v0.8
		C427.5,114.3,425.2,116.7,422.3,116.7z"/>
	<path class="st0" d="M358.1,156.9L358.1,156.9c-2.9,0-5.3-2.4-5.3-5.3v-0.8c0-2.9,2.4-5.3,5.3-5.3l0,0c2.9,0,5.3,2.4,5.3,5.3v0.8
		C363.4,154.6,361,156.9,358.1,156.9z"/>
	<path class="st1" d="M442.3,239v9.9c0.1,0,0.1,0,0.2,0c2.9,0,5.3-2.4,5.3-5.3v-8.5c-0.4-0.2-0.9-0.3-1.4-0.3
		C444.1,235,442.3,236.8,442.3,239z"/>
</g>
<g id="Layer_4">
	<text transform="matrix(0.9451 0 0 1 268.4644 377.2231)" class="st5 st6 st7">crash</text>
	<text transform="matrix(0.9892 0 0 1 268.9683 372.2983)" class="st8 st6 st9">crash</text>
	<g>
		<text transform="matrix(0.992 0 0 1 298.5006 279.7777)" class="st10 st11 st12">time</text>
	</g>
</g>
</svg>
